<svg viewBox="0 0 24 24" fill="none" xmlns="http://www.w3.org/2000/svg">
    <path fill="#444" d="M19.4 14a3 3 0 01-2.9-1.6.2.2 0 00-.4 0l-1.6 5.1a1.5 1.5 0 01-3 0L9.4 8.8a.3.3 0 00-.5 0 14.6 14.6 0 01-1.2 3.8A2.8 2.8 0 014.9 14H.5a.3.3 0 00-.2 0 .2.2 0 000 .3 12 12 0 0023.5 0 .3.3 0 00-.3-.3z"></path>
    <path fill="#444" d="M4.9 12c1 0 1 0 1.9-3.6l.7-2.9a1.5 1.5 0 011.5-1 1.5 1.5 0 011.5 1l2.4 9a.3.3 0 00.4 0l1.4-4.3a1.5 1.5 0 011.3-1 1.5 1.5 0 011.5.8c0 .2.2.4.3.5.5 1.2.7 1.5 1.6 1.5h4.3a.3.3 0 00.2 0 .2.2 0 00.1-.3 12 12 0 00-24 0 .2.2 0 00.3.3z"></path>
</svg>
