<svg height="20" xmlns="http://www.w3.org/2000/svg" viewBox="0 0 475.3 286.4">
    <path fill="#fff" d="M143.3 2.8C66 2.8 3 65.8 3 143c0 77.4 63 140.4 140.3 140.4h189c77.3 0 140.3-63 140.3-140.3C472.6 66 409.6 3 332.2 3h-189z"/>
    <path fill="#444" d="M143.3 2.8C66 2.8 3 65.8 3 143c0 77.4 63 140.4 140.3 140.4h189c77.3 0 140.3-63 140.3-140.3C472.6 66 409.6 3 332.2 3h-189zm189 283.6h-189C64.3 286.4 0 222 0 143S64.3 0 143.3 0h189c79 0 143 64 143 143s-64 143.4-143 143.4"/>
    <path fill="#d32011" d="M365.3 134.6l62.7 74.8c13-19 20.8-41.7 20.8-66.3 0-26-8.5-49.7-23-69l-60.5 60.6zm-178-67c47 0 82.2 12 86 51.4l49.2-51.4H421c-21.5-25-53.3-41-88.8-41h-189c-35.4 0-67.2 16-88.6 41h132.6zM110 117.4l-17 46h68c20 0 26-8.2 30.5-24 4.4-16-6.7-22-20.4-22h-61zm213 98.2l-52.3-66c-9.7 45-41.3 66-100.5 66h-118c21.2 26.8 54.2 44 91 44h189c37 0 70-17.2 91.3-44H323z"/>
</svg>
