<svg viewBox="0 0 900 575" height="20" xmlns="http://www.w3.org/2000/svg" fill-rule="evenodd" clip-rule="evenodd" stroke-linejoin="round" stroke-miterlimit="1.4142"><g fill-rule="nonzero"><path fill="#fff" d="M0 3.2917h900.0007v571.7088H0z"/><path fill="#fcb315" d="M14.9875 482.1046h870.009v78H14.9875z"/><path fill="#0d357f" d="M14.9875 18.2875h870.009v78H14.9875zM442.4879 182.2251l-45.8584 214.396h-55.4667l45.8625-214.396h55.4626zM675.838 320.6628l29.2-80.5126 16.796 80.5126h-45.996zm61.9168 75.9584h51.2833l-44.8083-214.396h-47.3084c-10.6667 0-19.65 6.1833-23.6292 15.7166L590.063 396.6212h58.2542l11.5625-32.021h71.15l6.725 32.021zm-144.8002-69.996c.2417-56.5792-78.2167-59.7167-77.6959-84.9958.1709-7.6834 7.4959-15.8667 23.5209-17.9584 7.9417-1.025 29.8584-1.85 54.7042 9.5959l9.7167-45.4834c-13.35-4.825-30.5209-9.475-51.8834-9.475-54.8334 0-93.4084 29.125-93.7167 70.8667-.35 30.8667 27.5583 48.075 48.5375 58.3542 21.6292 10.5084 28.8792 17.25 28.775 26.6375-.15 14.3834-17.2542 20.75-33.1708 20.9917-27.9042.4334-44.075-7.5417-56.9667-13.55l-10.0667 47c12.9792 5.9417 36.9 11.1126 61.6625 11.3792 58.2917 0 96.4126-28.7875 96.5834-73.3625zm-229.721-144.4l-89.8709 214.396h-58.625l-44.2292-171.1044c-2.6792-10.5208-5.0167-14.3875-13.1709-18.8333-13.3375-7.2458-35.3583-14.0208-54.7167-18.2375l1.3083-6.2209h94.3835c12.0208 0 22.8375 8 25.5875 21.8459l23.3625 124.071 57.7-145.9169h58.271z"/></g></svg>
