<svg xmlns="http://www.w3.org/2000/svg" viewBox="0 0 64.4 69">
  <path fill="#5a78ff" d="M26 69a5.8 5.8 0 0 1-5.4-3.6L.4 16.8c-1.2-3 .2-6.4 3.2-7.6l21-8.8c3-1.3 6.5.1 7.7 3.2l20.1 48.6c1.2 3-.2 6.4-3.1 7.6l-21.1 8.7c-.7.3-1.5.5-2.2.5Zm-.1-65.8L4.8 12c-1.4.6-2 2.1-1.5 3.5l20.2 48.6c.5 1.3 2.1 2 3.5 1.4L48 57c1.4-.6 2-2.1 1.5-3.5L29.4 4.8c-.5-1.4-2.3-2-3.5-1.6Z"/>
  <path fill="#3c5ae3" d="M44.5 35.7c-6 2.5-11 6-14.3 10.1l-8.5-20.5c3.8-4.5 8.8-8 14.3-10.1 6-2.5 12.1-3.7 17.3-3l8.5 20.5c-6-.4-11.9.6-17.3 3z"/>
  <path fill="#5a78ff" d="M47.3 42c-6.5 0-12.5 1.2-17.1 3.8V25.1c5.3-2.7 11.2-4 17-3.9a34 34 0 0 1 17.2 3.9v20.7c-5.3-2.7-11.2-4-17.1-3.8Z"/>
</svg>
