<svg xmlns="http://www.w3.org/2000/svg" xml:space="preserve" viewBox="0 0 120.4 51.1">
  <path d="M22.8 6.5a9.2 9.2 0 0 0 2-6.5 9.2 9.2 0 0 0-8.1 9.4c2.3.2 4.6-1.1 6-2.9m2.2 3.4c-3.4-.2-6.3 1.9-8 1.9-1.5 0-4-1.8-6.7-1.8a10 10 0 0 0-8.4 5.2C-2 21.4.8 30.7 4.3 35.8 6 38.4 8 41.1 10.9 41c2.5 0 3.5-1.6 6.7-1.6 3 0 4 1.6 6.7 1.6 2.9 0 4.6-2.5 6.3-5 2-3 2.8-5.7 2.9-5.9 0 0-5.5-2-5.5-8.3 0-5.2 4.2-7.7 4.4-7.8a9.7 9.7 0 0 0-7.5-4.1m29.4-7c7.4 0 12.5 5 12.5 12.4S61.6 27.8 54 27.8h-8v13h-6v-38h14.2zm-8.3 20h6.8c5 0 8-2.8 8-7.6s-3-7.5-8-7.5H46v15zm22.3 10c0-4.9 3.7-7.8 10.3-8.2l7.6-.4v-2.2c0-3-2.1-4.9-5.6-4.9-3.3 0-5.3 1.6-5.8 4h-5.4c.4-5 4.6-8.6 11.4-8.6 6.7 0 11 3.6 11 9v19.1h-5.4v-4.5h-.2c-1.6 3-5 5-8.7 5-5.4 0-9.2-3.4-9.2-8.3zm17.9-2.5v-2.2l-6.8.4c-3.4.3-5.3 1.8-5.3 4.1 0 2.4 2 4 5 4 4 0 7-2.7 7-6.3zm10.7 20.5v-4.6l1.9.1c2.6 0 4-1.1 4.9-4l.5-1.6-10-27.7h6.2l7 22.5 7-22.5h6l-10.3 29c-2.4 6.8-5.1 9-10.8 9z"/>
</svg>
