<svg xmlns="http://www.w3.org/2000/svg" fill="none" viewBox="0 0 72 24">
  <g clip-path="url(#a)">
    <path fill="#1D337A" d="m35.6.4-4.8 23.2H25L29.8.4h5.8Zm24.5 15 3-8.7 1.9 8.7H60Zm6.5 8.2H72L67.3.4h-5c-1 0-2 .7-2.4 1.7L51 23.6h6.1l1.2-3.4H66l.7 3.4Zm-15.2-7.5c0-6.2-8.2-6.5-8.1-9.2 0-.9.8-1.8 2.5-2 .8-.1 3-.2 5.7 1l1-4.9a15.2 15.2 0 0 0-5.4-1c-5.8 0-9.8 3.2-9.9 7.7 0 3.3 3 5.2 5.1 6.3 2.3 1.1 3 1.9 3 2.9 0 1.5-1.8 2.2-3.4 2.3-3 0-4.7-.9-6-1.5l-1 5c1.3.7 3.8 1.3 6.4 1.3 6.1 0 10.1-3.1 10.1-8ZM27.4.4l-9.5 23.2h-6.1L7 5.1c-.3-1.1-.5-1.5-1.4-2A23.8 23.8 0 0 0 0 1L.1.4h10c1.2 0 2.3.9 2.6 2.4l2.5 13.4 6-15.8h6.1"/>
  </g>
  <defs>
    <clipPath id="a">
      <path fill="#fff" d="M0 0h72v24H0z"/>
    </clipPath>
  </defs>
</svg>
