<svg xmlns="http://www.w3.org/2000/svg" viewBox="0 0 32 20" shape-rendering="geometricPrecision">
  <rect width="31.7" height="19.7" x=".15" y=".15" fill="#fff" stroke="#222" stroke-width=".3" ry="9.66"/>
  <path fill="#e21f28" d="M12.6 4.73H3.68a7.91 8.4 0 0 1 5.96-2.86h12.72a7.9 8.4 0 0 1 5.97 2.86H21.7l-3.33 3.6c-.24-2.77-2.62-3.6-5.78-3.6ZM24.6 9.4l4.08-4.24A7.8 8.1 0 0 1 30.2 10a7.8 8.09 0 0 1-1.4 4.62L24.6 9.4ZM7.4 8.2h4.1c.92 0 1.67.43 1.37 1.53-.3 1.12-.7 1.7-2.05 1.7H6.27Zm14.34 6.86h6.76a7.9 8.4 0 0 1-6.14 3.08H9.65a7.9 8.4 0 0 1-6.14-3.08h7.95c3.98 0 6.11-1.46 6.76-4.6z"/>
</svg>
