<svg xmlns="http://www.w3.org/2000/svg" viewBox="0 0 33.72 21">
  <rect fill="#fff" width="33.72" height="21"/>
  <path fill="#fcb315" d="M0 17.977h33.72V21H0Z"/>
  <path fill="#113f93" d="M0 0h33.72v3.023H0Z"/>
  <path fill="#113f93" d="m13.591 6.274-3.552 8.475H7.722L5.974 7.985c-.106-.416-.199-.569-.521-.744-.527-.286-1.397-.554-2.163-.72l.052-.247h3.73c.476 0 .903.316 1.011.864l.923 4.904 2.282-5.768h2.303zm9.08 5.708c.01-2.237-3.093-2.36-3.071-3.36.006-.304.296-.627.93-.71.314-.04 1.18-.072 2.161.38l.385-1.797a5.89 5.89 0 0 0-2.05-.376c-2.168 0-3.693 1.152-3.705 2.801-.014 1.22 1.088 1.901 1.919 2.307.854.415 1.14.682 1.138 1.053-.007.568-.682.82-1.313.83-1.102.016-1.741-.299-2.251-.536l-.397 1.857c.512.235 1.457.44 2.437.45 2.304 0 3.81-1.138 3.817-2.9m5.722 2.768h2.028l-1.77-8.475H26.78a.998.998 0 0 0-.933.622l-3.29 7.853h2.302l.457-1.266h2.813zm-2.446-3.003 1.154-3.182.664 3.182zm-9.223-5.472-1.813 8.475h-2.192l1.813-8.475z"/>
</svg>
