<svg xmlns="http://www.w3.org/2000/svg" width="32" height="20" viewBox="0 0 32 20" shape-rendering="geometricPrecision">
  <path fill="#fff" d="M0 0h32v20H0Z"/>
  <path fill="#fcb315" d="M0 17h32v3H0Z"/>
  <path fill="#113f93" d="M0 0h32v3H0Z"/>
  <path fill="#113f93" d="m12.8 5.66-3.55 8.47H6.93L5.18 7.37c-.1-.42-.2-.57-.52-.75A9.15 9.15 0 0 0 2.5 5.9l.05-.25h3.73c.48 0 .9.32 1.01.87l.93 4.9 2.28-5.76zm9.08 5.7C21.9 9.13 18.78 9 18.81 8c0-.3.3-.62.93-.7a4.15 4.15 0 0 1 2.16.37l.39-1.8a5.89 5.89 0 0 0-2.05-.37c-2.17 0-3.7 1.15-3.7 2.8-.02 1.22 1.08 1.9 1.91 2.3.85.42 1.14.69 1.14 1.06 0 .57-.68.82-1.31.83-1.1.02-1.75-.3-2.26-.53l-.4 1.85c.52.24 1.46.44 2.44.45 2.3 0 3.81-1.14 3.82-2.9m5.72 2.77h2.03l-1.77-8.47H26a1 1 0 0 0-.93.62l-3.3 7.85h2.3l.47-1.27h2.8zm-2.44-3 1.15-3.19.67 3.19zm-9.23-5.48-1.8 8.48h-2.2l1.81-8.47z"/>
</svg>
