<svg xmlns="http://www.w3.org/2000/svg" viewBox="0 0 31 21">
  <rect width="31" height="21" fill="#1535cb" rx="1.8"/>
  <path fill="#fff" d="m12.492 6.643-3.273 7.809H7.084L5.474 8.22c-.099-.384-.184-.524-.481-.686-.485-.264-1.287-.51-1.993-.665l.048-.226h3.437c.438 0 .832.292.932.796l.85 4.518 2.102-5.314Zm8.367 5.26c.008-2.062-2.85-2.176-2.83-3.096.006-.28.273-.578.856-.655.29-.037 1.088-.066 1.992.35l.355-1.656a5.427 5.427 0 0 0-1.89-.346c-1.996 0-3.402 1.061-3.414 2.58-.013 1.126 1.003 1.753 1.769 2.126.788.383 1.051.63 1.048.971-.005.525-.627.755-1.21.764-1.015.016-1.604-.274-2.074-.493l-.366 1.71c.473.218 1.344.407 2.247.416 2.123 0 3.51-1.048 3.517-2.672m5.272 2.55H28l-1.63-7.81h-1.726a.92.92 0 0 0-.86.573l-3.03 7.237h2.121l.421-1.167h2.592zm-2.254-2.767 1.064-2.932.612 2.932zM15.38 6.642l-1.67 7.809h-2.02l1.67-7.81z" style="stroke-width:.806452"/>
</svg>
